<svg width="36" height="36" viewBox="0 0 36 36" fill="none" xmlns="http://www.w3.org/2000/svg">
<path d="M18 0C8.06974 0 0 8.06974 0 18C0 27.9303 8.06974 36 18 36C27.9303 36 36 27.9303 36 18C36 8.06974 27.9303 0 18 0ZM18 1.56522C27.084 1.56522 34.4348 8.91599 34.4348 18C34.4348 18.0559 34.4308 18.1109 34.4302 18.1666C33.9296 18.1204 33.3513 18.0765 32.6158 18.0504C31.576 18.0136 30.2652 18.0242 28.7792 18.0978C28.8343 17.7141 28.8729 17.3249 28.874 16.9254C28.9498 15.4599 28.4576 14.0889 27.6573 12.8779C27.8506 12.2098 28.0774 11.3597 28.1342 10.3956C28.1988 9.29655 28.1039 8.07791 27.2216 7.25442L26.9954 7.04349H26.6867C24.5869 7.04349 23.1496 7.92252 22.2707 8.6194C21.0017 8.1282 19.5748 7.82609 18 7.82609C16.4163 7.82609 14.9756 8.13242 13.6544 8.62246C12.776 7.92524 11.3375 7.04349 9.2354 7.04349H8.92816L8.70194 7.2529C7.84249 8.05095 7.76331 9.23617 7.81692 10.3298C7.8642 11.2942 8.07788 12.1712 8.26784 12.8718C7.45396 14.1064 6.96553 15.5129 6.96553 16.9041C6.96553 17.3045 7.00277 17.6948 7.05724 18.0795C5.64404 18.0139 4.38426 18.0013 3.38418 18.0367C2.64876 18.0627 2.07035 18.1062 1.56981 18.1529C1.56934 18.1017 1.56523 18.0513 1.56523 18C1.56523 8.91601 8.91599 1.56522 18 1.56522ZM9.70159 8.71111C11.2806 8.86073 12.4685 9.5658 13.0185 10.0547L13.3854 10.3787L13.8378 10.1938C15.0755 9.68416 16.4559 9.3913 18 9.3913C19.5441 9.3913 20.9249 9.68563 22.069 10.1861L22.5275 10.3879L22.902 10.0547C23.4522 9.56564 24.6421 8.86035 26.222 8.71111C26.432 9.05935 26.6146 9.55461 26.5705 10.3038C26.5177 11.2005 26.2779 12.1771 26.0966 12.7571L25.9789 13.1347L26.2128 13.4541C26.9872 14.5101 27.382 15.6529 27.3149 16.8612L27.3134 16.8826V16.904C27.3134 18.857 26.6101 20.4201 25.1123 21.5783C23.6145 22.7365 21.2499 23.4783 17.9221 23.4783C14.5942 23.4783 12.2281 22.7365 10.7303 21.5783C9.23248 20.4201 8.53075 18.857 8.53075 16.904C8.53075 15.7577 8.94468 14.4967 9.70925 13.4541L9.93853 13.1423L9.82848 12.7709C9.64712 12.1543 9.42483 11.1554 9.38061 10.2534C9.34384 9.50317 9.52138 9.02898 9.70159 8.71111ZM5.38808 18.7994C5.94114 18.8065 6.57506 18.8363 7.2101 18.8682C7.27077 19.1122 7.33995 19.3523 7.42409 19.5866C4.83572 19.6412 2.89936 19.9015 1.70585 20.1247C1.65539 19.7331 1.61519 19.3383 1.59274 18.9385C2.47478 18.8548 3.71817 18.7781 5.38808 18.7994ZM30.6119 18.8117C32.2807 18.7905 33.5236 18.8673 34.4057 18.9507C34.3833 19.3448 34.3438 19.734 34.2942 20.1201C33.058 19.8933 31.0693 19.6331 28.4139 19.5912C28.4963 19.3615 28.5649 19.1256 28.6248 18.8865C29.3254 18.849 30.0088 18.8193 30.6119 18.8117ZM7.7573 20.3631C8.22432 21.299 8.89162 22.1345 9.77344 22.8164C10.9791 23.7487 12.5465 24.4 14.4599 24.7485C14.2096 25.0057 13.9819 25.2881 13.7797 25.5861L13.7323 25.5448C13.7366 25.5399 13.3433 25.7368 12.7556 25.7894C12.1679 25.842 11.443 25.8261 10.8006 25.8261C9.84191 25.8261 9.41963 25.3731 8.74473 24.5482C8.37099 24.0445 7.91537 23.6366 7.47299 23.3269C7.02001 23.0099 6.63359 22.7861 6.1554 22.7064L6.0912 22.6957H6.02548C5.66026 22.6957 5.30685 22.7221 4.97691 23.0992C4.81193 23.2877 4.69822 23.6368 4.77208 23.9322C4.84594 24.2277 5.03285 24.4092 5.20007 24.5207C6.26968 25.2338 6.45871 26.6451 7.12908 27.9003C7.7551 29.1477 9.10618 29.7391 10.4873 29.7391H12.5217V33.4978C7.01829 31.5552 2.86802 26.7688 1.82507 20.8981C3.02317 20.6724 5.02947 20.4011 7.7573 20.3631ZM28.0822 20.3692C30.8704 20.3931 32.933 20.664 34.1765 20.8935C33.1349 26.7664 28.9832 31.5547 23.4783 33.4978V29.4258C23.4783 28.1857 23.071 26.8182 22.3624 25.6778C22.1473 25.3316 21.8942 25.0041 21.6119 24.7103C23.4238 24.3523 24.9123 23.7121 26.0707 22.8164C26.9506 22.136 27.6164 21.3029 28.0822 20.3692ZM16.982 25.1214H19.1739C19.81 25.1214 20.489 25.6284 21.0326 26.5032C21.5762 27.3781 21.913 28.5528 21.913 29.4258V33.964C20.6588 34.2698 19.3491 34.4348 18 34.4348C16.6509 34.4348 15.3412 34.2698 14.087 33.964V29.4258C14.087 28.5722 14.4531 27.4002 15.0331 26.5216C15.6132 25.643 16.3459 25.1214 16.982 25.1214ZM8.06759 26.0462C8.74515 26.749 9.56545 27.3913 10.8006 27.3913C11.4104 27.3913 12.1715 27.4133 12.8947 27.3485C12.8973 27.3483 12.8998 27.3472 12.9023 27.347C12.8071 27.6209 12.736 27.8965 12.6761 28.1739H10.4873C9.52205 28.1739 8.84018 27.8252 8.52616 27.1972L8.52005 27.1865L8.51546 27.1773C8.3868 26.9383 8.21789 26.4605 8.06759 26.0462Z" fill="white"/>
</svg>
