<svg width="36" height="36" viewBox="0 0 36 36" fill="none" xmlns="http://www.w3.org/2000/svg">
<path d="M4.28571 0C1.92898 0 0 1.92898 0 4.28571V31.7143C0 34.071 1.92898 36 4.28571 36H31.7143C34.071 36 36 34.071 36 31.7143V4.28571C36 1.92898 34.071 0 31.7143 0H4.28571ZM4.28571 1.71429H31.7143C33.1444 1.71429 34.2857 2.85559 34.2857 4.28571V31.7143C34.2857 33.1444 33.1444 34.2857 31.7143 34.2857H4.28571C2.85559 34.2857 1.71429 33.1444 1.71429 31.7143V4.28571C1.71429 2.85559 2.85559 1.71429 4.28571 1.71429ZM8.57143 6.01005C7.63267 6.01005 6.7879 6.29064 6.16239 6.81697C5.53687 7.3433 5.1529 8.12959 5.1529 8.97154C5.1529 10.572 6.54111 11.8197 8.30692 11.9431C8.30804 11.9436 8.30915 11.9442 8.31027 11.9448C8.39442 11.9734 8.48255 11.9887 8.57144 11.99C10.5197 11.99 11.99 10.6252 11.99 8.97154C11.9898 8.95647 11.9893 8.94139 11.9883 8.92634C11.9011 7.29757 10.4489 6.01005 8.57143 6.01005ZM8.57143 7.70424C9.76477 7.70424 10.236 8.23718 10.2874 8.99331C10.277 9.72723 9.82293 10.2958 8.57143 10.2958C7.38393 10.2958 6.8471 9.68763 6.8471 8.97154C6.8471 8.61351 6.97774 8.34369 7.25223 8.11273C7.52672 7.88177 7.96733 7.70424 8.57143 7.70424ZM6 12.8571C5.52663 12.8572 5.14291 13.2409 5.14286 13.7143V30C5.14291 30.4734 5.52663 30.8571 6 30.8571H11.1429C11.6162 30.8571 11.9999 30.4734 12 30V24.9727V13.7143C11.9999 13.2409 11.6162 12.8572 11.1429 12.8571H6ZM13.7143 12.8571C13.2409 12.8572 12.8572 13.2409 12.8571 13.7143V30C12.8572 30.4734 13.2409 30.8571 13.7143 30.8571H18.8571C19.3305 30.8571 19.7142 30.4734 19.7143 30V21.4286C19.7143 20.7174 19.9083 20.01 20.25 19.5469C20.5917 19.0837 21.0227 18.8058 21.8421 18.8203C22.687 18.8348 23.1343 19.1243 23.4727 19.5787C23.811 20.0331 24 20.7143 24 21.4286V30C24 30.4734 24.3838 30.8571 24.8571 30.8571H30C30.4734 30.8571 30.8571 30.4734 30.8571 30V20.7958C30.8571 18.2573 30.1052 16.2466 28.8164 14.8862C27.5276 13.5258 25.735 12.8571 23.8393 12.8571C22.0375 12.8571 20.6664 13.4613 19.7143 14.0776V13.7143C19.7142 13.2409 19.3305 12.8572 18.8571 12.8571H13.7143ZM6.85714 14.5714H10.2857V24.9727V29.1429H6.85714V14.5714ZM14.5714 14.5714H18V15.909C18.0001 16.2776 18.2358 16.6049 18.5854 16.7218C18.9349 16.8387 19.32 16.719 19.5418 16.4247C19.5418 16.4247 20.8879 14.5714 23.8393 14.5714C25.3421 14.5714 26.6309 15.0708 27.5725 16.0647C28.5142 17.0587 29.1428 18.5899 29.1428 20.7958V29.1429H25.7143V21.4286C25.7143 20.4286 25.4747 19.3947 24.8488 18.5541C24.2228 17.7136 23.1701 17.1283 21.8722 17.106C20.5676 17.0829 19.4979 17.6803 18.8705 18.5307C18.2432 19.3811 18 20.4254 18 21.4286V29.1429H14.5714L14.5714 14.5714Z" fill="#988FFF"/>
</svg>
