<svg width="37" height="36" viewBox="0 0 37 36" fill="none" xmlns="http://www.w3.org/2000/svg">
<path d="M18.9761 0C9.04545 0 0.991477 8.06087 0.991477 18C0.991477 21.2087 1.85161 24.182 3.3373 26.7646L0.991477 34.982C0.913284 35.2168 0.990867 35.5298 1.14726 35.7646C1.38184 35.9994 1.69461 36 1.92919 36L10.5305 33.8876C13.0327 35.218 15.9265 36 18.9761 36C28.9067 36 36.9607 27.9391 36.9607 18C36.9607 8.06087 28.9067 0 18.9761 0ZM18.9761 1.56522C28.0466 1.56522 35.3968 8.92174 35.3968 18C35.3968 27.0783 28.0466 34.4348 18.9761 34.4348C16.0829 34.4348 13.3467 33.6528 11.0009 32.3223C10.8445 32.2441 10.609 32.1646 10.4526 32.2429L2.94633 34.1214L4.90118 26.922C4.97937 26.6873 4.90148 26.5301 4.82329 26.2953C3.4158 23.8693 2.55536 21.0522 2.55536 18C2.55536 8.92174 9.90559 1.56522 18.9761 1.56522ZM13.5911 8.59952C13.4445 8.58974 13.3467 8.6087 13.3467 8.6087H12.4075C11.9383 8.6087 11.2355 8.76522 10.6099 9.3913C10.219 9.78261 8.81087 11.1913 8.81087 13.6957C8.81087 16.3565 10.609 18.6258 10.8436 18.8606C10.8436 18.8606 11.1567 19.2528 11.5477 19.8006C11.9386 20.3484 12.4857 20.9745 13.1894 21.7571C14.5969 23.2441 16.5518 24.9646 19.054 25.982C20.1487 26.4516 21.087 26.7652 21.7908 27C23.0419 27.3913 24.2157 27.3137 25.0758 27.2354C25.7014 27.1571 26.4048 26.8429 27.1086 26.3733C27.8123 25.9037 28.5154 25.3568 28.8282 24.5742C29.0628 23.9481 29.141 23.4006 29.2192 22.931V22.3043C29.2192 22.0696 29.1419 22.0702 28.9855 21.7571C28.5946 21.131 28.2024 21.131 27.7332 20.9745C27.4986 20.818 26.7949 20.505 26.1693 20.1919C25.4656 19.8789 24.9185 19.5658 24.5276 19.4093C24.293 19.331 23.9808 19.1736 23.5898 19.2519C23.1989 19.3301 22.8073 19.5652 22.5727 19.9565C22.3381 20.2696 21.4789 21.3646 21.1661 21.6777L21.0867 21.5997C20.7739 21.4432 20.3054 21.2876 19.758 20.9745C19.1325 20.6615 18.4281 20.1919 17.568 19.4093C16.3169 18.3137 15.4567 16.9823 15.2222 16.5127C15.4567 16.1997 15.7698 15.887 15.9262 15.6522C16.0044 15.5739 16.0679 15.495 16.1217 15.4168C16.1755 15.3385 16.2201 15.2612 16.2592 15.1829C16.3373 15.0264 16.3963 14.8702 16.4745 14.7137C16.7873 14.1658 16.6309 13.5394 16.4745 13.2264C16.4745 13.2264 16.3957 12.9919 16.2393 12.7571C16.1611 12.5223 16.0047 12.1301 15.8483 11.8171C15.5356 11.1127 15.2228 10.3301 15.0664 9.86056C14.8318 9.31274 14.5196 8.92113 14.1287 8.76461C13.9332 8.64721 13.7377 8.60931 13.5911 8.59952ZM12.4075 10.1739H13.2673H13.4246C13.4246 10.1739 13.5022 10.2525 13.5804 10.4873C13.7368 10.9568 14.1278 11.7394 14.3623 12.4438C14.5187 12.7568 14.6751 13.1475 14.7533 13.3823C14.8315 13.6171 14.9103 13.7745 14.9885 13.931C14.9885 14.0093 15.0664 14.009 15.0664 14.009C14.91 14.322 14.91 14.3994 14.6754 14.6342C14.4408 14.9472 14.1275 15.2603 14.0493 15.4168C13.9711 15.5733 13.7368 15.7304 13.5804 16.0435C13.424 16.3565 13.5031 16.904 13.7377 17.2953C14.0505 17.7649 14.9888 19.3307 16.4745 20.6612C17.4128 21.522 18.2723 22.0693 18.9761 22.3823C19.6798 22.7736 20.2278 22.9307 20.3842 23.009C20.697 23.1655 21.0088 23.2429 21.3998 23.2429C21.7908 23.2429 22.1045 22.9304 22.339 22.6957C22.6518 22.3826 23.4325 21.4432 23.8235 20.8171L23.9808 20.895C23.9808 20.895 24.2148 20.9739 24.5276 21.1304C24.8403 21.287 25.1537 21.4432 25.5447 21.5997C26.2484 21.9127 26.874 22.2258 27.1086 22.3823L27.5774 22.6177V22.8516C27.5774 23.1646 27.4986 23.6354 27.3422 24.105C27.264 24.3397 26.7958 24.8084 26.3266 25.1214C25.7793 25.4345 25.1531 25.6699 24.9185 25.7481C24.2148 25.8264 23.3556 25.9037 22.339 25.5907C21.7135 25.3559 20.8527 25.1217 19.758 24.6522C17.5686 23.713 15.7695 22.1478 14.4402 20.7391C13.8147 20.0348 13.2673 19.4081 12.8763 18.9385C12.4854 18.469 12.3302 18.1565 12.1738 18C11.861 17.687 10.3748 15.6519 10.3748 13.7736C10.3748 11.8171 11.3137 11.0351 11.7829 10.4873C12.0174 10.1742 12.3293 10.1739 12.4075 10.1739Z" fill="white"/>
</svg>
